<svg version="1.1" id="Layer_1" xmlns="http://www.w3.org/2000/svg" xmlns:xlink="http://www.w3.org/1999/xlink" x="0px" y="0px"
	 width="100%" viewBox="0 0 500 190" enable-background="new 0 0 500 190" xml:space="preserve">
<path fill="#FEFEFE" opacity="1.000000" stroke="none" 
	d="
M354.000000,191.000000 
	C236.000015,191.000000 118.500046,191.000000 1.000047,191.000000 
	C1.000031,127.666702 1.000031,64.333397 1.000016,1.000073 
	C167.666611,1.000049 334.333221,1.000049 500.999878,1.000024 
	C500.999908,64.333260 500.999908,127.666527 500.999939,190.999893 
	C452.166656,191.000000 403.333344,191.000000 354.000000,191.000000 
M87.895630,36.492008 
	C85.122177,34.490555 82.566925,34.968098 79.586517,36.486519 
	C66.122040,43.346214 52.533058,49.961548 38.989201,56.665462 
	C35.233521,58.524445 31.478769,60.385303 26.905447,62.650543 
	C65.272064,62.650543 102.558968,62.650543 140.887650,62.650543 
	C122.791412,53.736420 105.676598,45.305740 87.895630,36.492008 
M66.500000,141.999985 
	C56.390949,141.999985 46.281898,141.999985 36.055733,141.999985 
	C35.965691,143.862259 35.897289,145.276993 35.807831,147.127228 
	C31.565485,147.127228 27.659914,147.127228 23.747746,147.127228 
	C23.747746,150.016144 23.747746,152.437012 23.747746,154.792908 
	C64.006081,154.792908 103.986679,154.792908 143.729965,154.792908 
	C143.729965,151.996704 143.729965,149.579605 143.729965,146.911377 
	C139.632156,146.911377 135.844849,146.911377 131.908295,146.911377 
	C131.786850,145.227188 131.684326,143.805435 131.554123,141.999985 
	C110.012062,141.999985 88.756035,141.999985 66.500000,141.999985 
M106.588547,109.500198 
	C106.588547,98.588661 106.588547,87.677116 106.588547,76.708160 
	C102.977478,76.708160 100.066238,76.708160 97.070740,76.708160 
	C97.070740,97.189926 97.070740,117.401512 97.070740,137.607315 
	C100.270287,137.607315 103.196808,137.607315 106.588501,137.607315 
	C106.588501,128.402939 106.588501,119.451569 106.588547,109.500198 
M78.327614,77.132393 
	C78.327614,97.308998 78.327614,117.485603 78.327614,137.587372 
	C81.799500,137.587372 84.723618,137.587372 87.716751,137.587372 
	C87.716751,117.155472 87.716751,96.990067 87.716751,76.628059 
	C84.649536,76.628059 81.855965,76.628059 78.327614,77.132393 
M115.204231,113.499916 
	C115.204231,121.447388 115.204231,129.394867 115.204231,137.546204 
	C118.728783,137.546204 121.763580,137.546204 124.882957,137.546204 
	C124.882957,117.141266 124.882957,97.048851 124.882957,76.785782 
	C121.636635,76.785782 118.576942,76.785782 115.204239,76.785782 
	C115.204239,88.909355 115.204239,100.704628 115.204231,113.499916 
M42.886150,76.478676 
	C42.268482,77.902840 41.133316,79.320389 41.115013,80.752213 
	C40.968498,92.213409 41.033146,103.677299 41.033142,115.140366 
	C41.033142,122.569817 41.033138,129.999268 41.033138,137.526428 
	C44.568645,137.526428 47.605541,137.526428 50.770790,137.526428 
	C50.770790,117.147713 50.770790,97.095146 50.770790,76.465302 
	C48.343555,76.465302 46.059559,76.465302 42.886150,76.478676 
M69.353539,100.500473 
	C69.353539,92.572075 69.353539,84.643684 69.353539,76.841080 
	C65.791954,76.841080 62.889542,76.841080 59.985085,76.841080 
	C59.985085,97.267647 59.985085,117.337105 59.985085,137.602661 
	C63.147709,137.602661 66.044594,137.602661 69.353500,137.602661 
	C69.353500,125.414703 69.353500,113.457588 69.353539,100.500473 
M119.493927,67.395210 
	C90.735321,67.395210 61.976711,67.395210 32.865475,67.395210 
	C33.005299,69.351471 33.103916,70.731224 33.194027,71.991966 
	C67.207718,71.991966 100.805069,71.991966 134.813004,71.991966 
	C134.657730,70.351242 134.528992,68.990990 134.377960,67.395256 
	C129.454575,67.395256 124.972466,67.395256 119.493927,67.395210 
M442.065552,116.330338 
	C442.598389,112.270233 443.552856,108.214127 443.591309,104.149345 
	C443.760468,86.270325 441.703094,84.357605 423.958069,84.978737 
	C423.671509,84.988754 423.393829,85.252419 422.913452,85.500061 
	C422.913452,97.480247 422.913452,109.552452 422.913452,121.910408 
	C429.664520,121.722000 436.782013,123.813560 442.065552,116.330338 
M233.442566,101.539536 
	C233.442749,100.041847 233.416122,98.543571 233.448975,97.046600 
	C233.508102,94.352242 233.382553,91.293701 236.984039,90.910736 
	C240.680450,90.517662 241.172119,93.339355 241.375916,96.188034 
	C241.406860,96.620461 241.822937,97.025345 242.041458,97.408897 
	C243.921295,97.408897 245.697021,97.408897 247.441162,97.408897 
	C248.334045,90.009003 244.316544,84.590790 237.895126,84.254532 
	C231.996628,83.945656 227.140594,88.824615 227.011108,95.405861 
	C226.899841,101.061272 226.832840,106.727707 227.059235,112.376724 
	C227.282990,117.960258 231.592484,122.205246 236.855911,122.495689 
	C242.288635,122.795479 247.176605,118.719910 247.770874,112.995575 
	C248.108612,109.742363 247.831894,106.425362 247.831894,102.973747 
	C244.253296,102.973747 240.981949,102.973747 237.509277,102.973747 
	C237.509277,104.971611 237.509277,106.742416 237.509277,108.677299 
	C238.765930,108.998138 239.963104,109.303780 241.140778,109.604454 
	C241.435532,112.942543 241.226273,115.973511 237.248810,115.889008 
	C233.658829,115.812737 233.484360,112.762001 233.449875,110.001724 
	C233.418671,107.505974 233.442764,105.009521 233.442566,101.539536 
M340.607300,102.770073 
	C339.820007,104.590233 339.032715,106.410393 338.086304,108.598366 
	C340.325073,109.028954 341.542389,109.263077 342.851837,109.514931 
	C343.051575,112.727455 342.834290,115.813103 338.992950,115.892204 
	C335.092133,115.972527 334.936310,112.787712 334.968994,109.793732 
	C335.014374,105.635529 334.996887,101.476357 334.974701,97.317780 
	C334.959259,94.421555 334.782654,91.147552 338.678528,90.887451 
	C342.648804,90.622383 342.708313,94.000740 343.123413,96.809158 
	C343.161133,97.064598 343.534393,97.270454 343.910065,97.665855 
	C345.519104,97.587402 347.264771,97.502281 348.960175,97.419609 
	C349.437073,89.834831 346.139709,85.127457 340.110321,84.337090 
	C335.008057,83.668243 329.352142,87.424873 328.944824,92.754715 
	C328.402435,99.851898 328.440186,107.050278 328.957275,114.152145 
	C329.319977,119.133499 334.265228,122.627731 339.202118,122.490456 
	C344.126587,122.353516 348.557343,118.575752 349.052612,113.603218 
	C349.394989,110.166107 349.118439,106.667343 349.118439,102.762032 
	C346.467621,102.762032 344.007843,102.762032 340.607300,102.770073 
M363.851074,97.506851 
	C363.844849,102.329094 363.713531,107.155258 363.864471,111.972572 
	C364.048065,117.832794 368.313812,122.243614 373.758759,122.498741 
	C379.085724,122.748337 384.145905,119.060814 384.447632,113.436699 
	C384.951508,104.043190 384.585144,94.603004 384.585144,85.235748 
	C382.184540,85.235748 380.282074,85.235748 378.107086,85.235748 
	C378.107086,87.024872 378.107819,88.498482 378.106934,89.972099 
	C378.102570,97.122368 378.309418,104.283928 377.929321,111.414169 
	C377.844879,112.997604 375.690491,114.470688 374.489197,115.994591 
	C373.063141,114.494820 371.302307,113.180870 370.330017,111.429214 
	C369.693573,110.282654 370.194122,108.502251 370.193756,107.005737 
	C370.191925,99.744995 370.192932,92.484245 370.192932,85.248291 
	C367.799072,85.248291 365.923370,85.248291 363.853851,85.248291 
	C363.853851,89.222458 363.853851,92.867378 363.851074,97.506851 
M194.091690,94.540474 
	C194.091690,103.631088 194.091690,112.721695 194.091690,121.777786 
	C200.308456,121.777786 205.911835,121.777786 211.613297,121.777786 
	C211.613297,119.624435 211.613297,117.726570 211.613297,115.357063 
	C207.943497,115.357063 204.524506,115.357063 201.023956,115.357063 
	C201.023956,112.017067 201.023956,109.165352 201.023956,105.902252 
	C204.814987,105.902252 208.242447,105.902252 211.662277,105.902252 
	C211.662277,103.691414 211.662277,101.906212 211.662277,99.697113 
	C208.040726,99.697113 204.601547,99.697113 200.975464,99.697113 
	C200.975464,96.697441 200.975464,94.125626 200.975464,91.124367 
	C204.721970,91.124367 208.151855,91.124367 211.638458,91.124367 
	C211.638458,88.918243 211.638458,87.148735 211.638458,85.265167 
	C205.730270,85.265167 200.022873,85.265167 194.092636,85.265167 
	C194.092636,88.260269 194.092636,90.906929 194.091690,94.540474 
M458.934357,112.470428 
	C458.934357,115.567131 458.934357,118.663841 458.934357,121.753365 
	C465.045227,121.753365 470.614014,121.753365 476.240631,121.753365 
	C476.240631,119.597870 476.240631,117.703423 476.240631,115.145905 
	C472.416077,115.145905 468.899200,115.145905 465.373230,115.145905 
	C465.373230,111.828926 465.373230,109.180664 465.373230,106.034744 
	C469.052551,106.034744 472.626648,106.034744 476.127380,106.034744 
	C476.127380,103.663536 476.127380,101.799866 476.127380,99.436417 
	C472.343933,99.436417 468.954590,99.436417 465.579590,99.436417 
	C465.579590,96.517563 465.579590,94.114777 465.579590,91.249275 
	C469.300751,91.249275 472.715240,91.249275 476.135925,91.249275 
	C476.135925,88.882195 476.135925,86.988647 476.135925,85.259422 
	C470.229187,85.259422 464.663391,85.259422 458.935181,85.259422 
	C458.935181,94.220291 458.935181,102.850128 458.934357,112.470428 
M265.891235,95.233932 
	C264.288177,104.001534 262.685120,112.769127 261.044250,121.743462 
	C264.627014,122.125305 268.192383,123.339073 268.236877,118.092758 
	C270.751221,118.092758 272.876831,118.092758 275.033966,118.092758 
	C275.483978,119.458473 275.882935,120.669151 276.260590,121.815201 
	C278.261139,121.815201 280.037659,121.815201 282.312073,121.815201 
	C280.152496,109.382378 278.041382,97.228539 275.928711,85.065720 
	C272.997986,85.065720 270.532501,85.065720 267.748688,85.065720 
	C267.153931,88.217911 266.572693,91.298523 265.891235,95.233932 
M303.265533,110.578339 
	C303.265533,102.123322 303.265533,93.668304 303.265533,85.222221 
	C300.962585,85.222221 299.063721,85.222221 297.199829,85.222221 
	C297.199829,97.592636 297.199829,109.666695 297.199829,121.771317 
	C303.062469,121.771317 308.651367,121.771317 314.355164,121.771317 
	C314.355164,119.635254 314.355164,117.742065 314.355164,115.382988 
	C311.608826,115.382988 309.130005,115.210991 306.685394,115.426575 
	C303.636871,115.695404 302.893494,114.225822 303.265533,110.578339 
M161.759430,89.569183 
	C161.759430,100.316856 161.759430,111.064529 161.759430,121.706497 
	C167.889374,121.706497 173.459137,121.706497 178.955261,121.706497 
	C178.955261,119.480820 178.955261,117.560745 178.955261,115.271980 
	C175.226730,115.271980 171.809341,115.271980 167.978104,115.271980 
	C167.978104,104.998169 167.978104,95.089363 167.978104,84.614838 
	C165.203247,85.613174 161.041046,82.943924 161.759430,89.569183 
M406.679474,86.913795 
	C404.709747,86.055016 402.740021,85.196228 400.299744,84.132286 
	C400.299744,97.625793 400.299744,109.677063 400.299744,121.820511 
	C402.470123,121.820511 404.388916,121.820511 406.688416,121.820511 
	C406.688416,110.353134 406.688416,99.100288 406.679474,86.913795 
z"/>
<path fill="#040404" opacity="1.000000" stroke="none" 
	d="
M88.228706,36.683533 
	C105.676598,45.305740 122.791412,53.736420 140.887650,62.650543 
	C102.558968,62.650543 65.272064,62.650543 26.905447,62.650543 
	C31.478769,60.385303 35.233521,58.524445 38.989201,56.665462 
	C52.533058,49.961548 66.122040,43.346214 79.586517,36.486519 
	C82.566925,34.968098 85.122177,34.490555 88.228706,36.683533 
z"/>
<path fill="#010101" opacity="1.000000" stroke="none" 
	d="
M67.000000,141.999985 
	C88.756035,141.999985 110.012062,141.999985 131.554123,141.999985 
	C131.684326,143.805435 131.786850,145.227188 131.908295,146.911377 
	C135.844849,146.911377 139.632156,146.911377 143.729965,146.911377 
	C143.729965,149.579605 143.729965,151.996704 143.729965,154.792908 
	C103.986679,154.792908 64.006081,154.792908 23.747746,154.792908 
	C23.747746,152.437012 23.747746,150.016144 23.747746,147.127228 
	C27.659914,147.127228 31.565485,147.127228 35.807831,147.127228 
	C35.897289,145.276993 35.965691,143.862259 36.055733,141.999985 
	C46.281898,141.999985 56.390949,141.999985 67.000000,141.999985 
z"/>
<path fill="#0F0F0F" opacity="1.000000" stroke="none" 
	d="
M106.588524,110.000198 
	C106.588501,119.451569 106.588501,128.402939 106.588501,137.607315 
	C103.196808,137.607315 100.270287,137.607315 97.070740,137.607315 
	C97.070740,117.401512 97.070740,97.189926 97.070740,76.708160 
	C100.066238,76.708160 102.977478,76.708160 106.588547,76.708160 
	C106.588547,87.677116 106.588547,98.588661 106.588524,110.000198 
z"/>
<path fill="#090909" opacity="1.000000" stroke="none" 
	d="
M78.695007,76.880226 
	C81.855965,76.628059 84.649536,76.628059 87.716751,76.628059 
	C87.716751,96.990067 87.716751,117.155472 87.716751,137.587372 
	C84.723618,137.587372 81.799500,137.587372 78.327614,137.587372 
	C78.327614,117.485603 78.327614,97.308998 78.695007,76.880226 
z"/>
<path fill="#0B0B0B" opacity="1.000000" stroke="none" 
	d="
M115.204239,112.999908 
	C115.204239,100.704628 115.204239,88.909355 115.204239,76.785782 
	C118.576942,76.785782 121.636635,76.785782 124.882957,76.785782 
	C124.882957,97.048851 124.882957,117.141266 124.882957,137.546204 
	C121.763580,137.546204 118.728783,137.546204 115.204231,137.546204 
	C115.204231,129.394867 115.204231,121.447388 115.204239,112.999908 
z"/>
<path fill="#090909" opacity="1.000000" stroke="none" 
	d="
M43.330856,76.471985 
	C46.059559,76.465302 48.343555,76.465302 50.770790,76.465302 
	C50.770790,97.095146 50.770790,117.147713 50.770790,137.526428 
	C47.605541,137.526428 44.568645,137.526428 41.033138,137.526428 
	C41.033138,129.999268 41.033142,122.569817 41.033142,115.140366 
	C41.033146,103.677299 40.968498,92.213409 41.115013,80.752213 
	C41.133316,79.320389 42.268482,77.902840 43.330856,76.471985 
z"/>
<path fill="#030303" opacity="1.000000" stroke="none" 
	d="
M69.353516,101.000473 
	C69.353500,113.457588 69.353500,125.414703 69.353500,137.602661 
	C66.044594,137.602661 63.147709,137.602661 59.985085,137.602661 
	C59.985085,117.337105 59.985085,97.267647 59.985085,76.841080 
	C62.889542,76.841080 65.791954,76.841080 69.353539,76.841080 
	C69.353539,84.643684 69.353539,92.572075 69.353516,101.000473 
z"/>
<path fill="#1A1A1A" opacity="1.000000" stroke="none" 
	d="
M119.992142,67.395233 
	C124.972466,67.395256 129.454575,67.395256 134.377960,67.395256 
	C134.528992,68.990990 134.657730,70.351242 134.813004,71.991966 
	C100.805069,71.991966 67.207718,71.991966 33.194027,71.991966 
	C33.103916,70.731224 33.005299,69.351471 32.865475,67.395210 
	C61.976711,67.395210 90.735321,67.395210 119.992142,67.395233 
z"/>
<path fill="#080808" opacity="1.000000" stroke="none" 
	d="
M441.879150,116.666321 
	C436.782013,123.813560 429.664520,121.722000 422.913452,121.910408 
	C422.913452,109.552452 422.913452,97.480247 422.913452,85.500061 
	C423.393829,85.252419 423.671509,84.988754 423.958069,84.978737 
	C441.703094,84.357605 443.760468,86.270325 443.591309,104.149345 
	C443.552856,108.214127 442.598389,112.270233 441.879150,116.666321 
M429.108795,94.867905 
	C429.108795,101.626465 429.108795,108.385025 429.108795,115.100121 
	C434.857666,115.412643 436.746246,114.660324 436.935852,111.360199 
	C437.250366,105.886856 437.325562,100.354965 436.821228,94.910751 
	C436.694489,93.542831 434.153473,91.982658 432.412231,91.293633 
	C430.559692,90.560562 428.732391,91.230049 429.108795,94.867905 
z"/>
<path fill="#0B0B0B" opacity="1.000000" stroke="none" 
	d="
M233.442535,102.026459 
	C233.442764,105.009521 233.418671,107.505974 233.449875,110.001724 
	C233.484360,112.762001 233.658829,115.812737 237.248810,115.889008 
	C241.226273,115.973511 241.435532,112.942543 241.140778,109.604454 
	C239.963104,109.303780 238.765930,108.998138 237.509277,108.677299 
	C237.509277,106.742416 237.509277,104.971611 237.509277,102.973747 
	C240.981949,102.973747 244.253296,102.973747 247.831894,102.973747 
	C247.831894,106.425362 248.108612,109.742363 247.770874,112.995575 
	C247.176605,118.719910 242.288635,122.795479 236.855911,122.495689 
	C231.592484,122.205246 227.282990,117.960258 227.059235,112.376724 
	C226.832840,106.727707 226.899841,101.061272 227.011108,95.405861 
	C227.140594,88.824615 231.996628,83.945656 237.895126,84.254532 
	C244.316544,84.590790 248.334045,90.009003 247.441162,97.408897 
	C245.697021,97.408897 243.921295,97.408897 242.041458,97.408897 
	C241.822937,97.025345 241.406860,96.620461 241.375916,96.188034 
	C241.172119,93.339355 240.680450,90.517662 236.984039,90.910736 
	C233.382553,91.293701 233.508102,94.352242 233.448975,97.046600 
	C233.416122,98.543571 233.442749,100.041847 233.442535,102.026459 
z"/>
<path fill="#060606" opacity="1.000000" stroke="none" 
	d="
M341.077698,102.766052 
	C344.007843,102.762032 346.467621,102.762032 349.118439,102.762032 
	C349.118439,106.667343 349.394989,110.166107 349.052612,113.603218 
	C348.557343,118.575752 344.126587,122.353516 339.202118,122.490456 
	C334.265228,122.627731 329.319977,119.133499 328.957275,114.152145 
	C328.440186,107.050278 328.402435,99.851898 328.944824,92.754715 
	C329.352142,87.424873 335.008057,83.668243 340.110321,84.337090 
	C346.139709,85.127457 349.437073,89.834831 348.960175,97.419609 
	C347.264771,97.502281 345.519104,97.587402 343.910065,97.665855 
	C343.534393,97.270454 343.161133,97.064598 343.123413,96.809158 
	C342.708313,94.000740 342.648804,90.622383 338.678528,90.887451 
	C334.782654,91.147552 334.959259,94.421555 334.974701,97.317780 
	C334.996887,101.476357 335.014374,105.635529 334.968994,109.793732 
	C334.936310,112.787712 335.092133,115.972527 338.992950,115.892204 
	C342.834290,115.813103 343.051575,112.727455 342.851837,109.514931 
	C341.542389,109.263077 340.325073,109.028954 338.086304,108.598366 
	C339.032715,106.410393 339.820007,104.590233 341.077698,102.766052 
z"/>
<path fill="#0B0B0B" opacity="1.000000" stroke="none" 
	d="
M363.852478,97.009575 
	C363.853851,92.867378 363.853851,89.222458 363.853851,85.248291 
	C365.923370,85.248291 367.799072,85.248291 370.192932,85.248291 
	C370.192932,92.484245 370.191925,99.744995 370.193756,107.005737 
	C370.194122,108.502251 369.693573,110.282654 370.330017,111.429214 
	C371.302307,113.180870 373.063141,114.494820 374.489197,115.994583 
	C375.690491,114.470688 377.844879,112.997604 377.929321,111.414169 
	C378.309418,104.283928 378.102570,97.122368 378.106934,89.972099 
	C378.107819,88.498482 378.107086,87.024872 378.107086,85.235748 
	C380.282074,85.235748 382.184540,85.235748 384.585144,85.235748 
	C384.585144,94.603004 384.951508,104.043190 384.447632,113.436699 
	C384.145905,119.060814 379.085724,122.748337 373.758759,122.498741 
	C368.313812,122.243614 364.048065,117.832794 363.864471,111.972572 
	C363.713531,107.155258 363.844849,102.329094 363.852478,97.009575 
z"/>
<path fill="#0D0D0D" opacity="1.000000" stroke="none" 
	d="
M194.092163,94.047028 
	C194.092636,90.906929 194.092636,88.260269 194.092636,85.265167 
	C200.022873,85.265167 205.730270,85.265167 211.638458,85.265167 
	C211.638458,87.148735 211.638458,88.918243 211.638458,91.124367 
	C208.151855,91.124367 204.721970,91.124367 200.975464,91.124367 
	C200.975464,94.125626 200.975464,96.697441 200.975464,99.697113 
	C204.601547,99.697113 208.040726,99.697113 211.662277,99.697113 
	C211.662277,101.906212 211.662277,103.691414 211.662277,105.902252 
	C208.242447,105.902252 204.814987,105.902252 201.023956,105.902252 
	C201.023956,109.165352 201.023956,112.017067 201.023956,115.357063 
	C204.524506,115.357063 207.943497,115.357063 211.613297,115.357063 
	C211.613297,117.726570 211.613297,119.624435 211.613297,121.777786 
	C205.911835,121.777786 200.308456,121.777786 194.091690,121.777786 
	C194.091690,112.721695 194.091690,103.631088 194.092163,94.047028 
z"/>
<path fill="#060606" opacity="1.000000" stroke="none" 
	d="
M458.934753,111.975204 
	C458.935181,102.850128 458.935181,94.220291 458.935181,85.259422 
	C464.663391,85.259422 470.229187,85.259422 476.135925,85.259422 
	C476.135925,86.988647 476.135925,88.882195 476.135925,91.249275 
	C472.715240,91.249275 469.300751,91.249275 465.579590,91.249275 
	C465.579590,94.114777 465.579590,96.517563 465.579590,99.436417 
	C468.954590,99.436417 472.343933,99.436417 476.127380,99.436417 
	C476.127380,101.799866 476.127380,103.663536 476.127380,106.034744 
	C472.626648,106.034744 469.052551,106.034744 465.373230,106.034744 
	C465.373230,109.180664 465.373230,111.828926 465.373230,115.145905 
	C468.899200,115.145905 472.416077,115.145905 476.240631,115.145905 
	C476.240631,117.703423 476.240631,119.597870 476.240631,121.753365 
	C470.614014,121.753365 465.045227,121.753365 458.934357,121.753365 
	C458.934357,118.663841 458.934357,115.567131 458.934753,111.975204 
z"/>
<path fill="#090909" opacity="1.000000" stroke="none" 
	d="
M265.941345,94.806534 
	C266.572693,91.298523 267.153931,88.217911 267.748688,85.065720 
	C270.532501,85.065720 272.997986,85.065720 275.928711,85.065720 
	C278.041382,97.228539 280.152496,109.382378 282.312073,121.815201 
	C280.037659,121.815201 278.261139,121.815201 276.260590,121.815201 
	C275.882935,120.669151 275.483978,119.458473 275.033966,118.092758 
	C272.876831,118.092758 270.751221,118.092758 268.236877,118.092758 
	C268.192383,123.339073 264.627014,122.125305 261.044250,121.743462 
	C262.685120,112.769127 264.288177,104.001534 265.941345,94.806534 
M272.757385,101.112442 
	C272.465424,100.222939 272.173492,99.333435 271.478882,97.217102 
	C270.578125,102.910721 269.882568,107.307266 269.156189,111.898811 
	C270.983978,111.898811 272.387756,111.898811 274.158081,111.898811 
	C273.706512,108.396957 273.289093,105.160149 272.757385,101.112442 
z"/>
<path fill="#060606" opacity="1.000000" stroke="none" 
	d="
M303.264526,111.089691 
	C302.893494,114.225822 303.636871,115.695404 306.685394,115.426575 
	C309.130005,115.210991 311.608826,115.382988 314.355164,115.382988 
	C314.355164,117.742065 314.355164,119.635254 314.355164,121.771317 
	C308.651367,121.771317 303.062469,121.771317 297.199829,121.771317 
	C297.199829,109.666695 297.199829,97.592636 297.199829,85.222221 
	C299.063721,85.222221 300.962585,85.222221 303.265533,85.222221 
	C303.265533,93.668304 303.265533,102.123322 303.264526,111.089691 
z"/>
<path fill="#040404" opacity="1.000000" stroke="none" 
	d="
M161.760223,89.081512 
	C161.041046,82.943924 165.203247,85.613174 167.978104,84.614838 
	C167.978104,95.089363 167.978104,104.998169 167.978104,115.271980 
	C171.809341,115.271980 175.226730,115.271980 178.955261,115.271980 
	C178.955261,117.560745 178.955261,119.480820 178.955261,121.706497 
	C173.459137,121.706497 167.889374,121.706497 161.759430,121.706497 
	C161.759430,111.064529 161.759430,100.316856 161.760223,89.081512 
z"/>
<path fill="#161616" opacity="1.000000" stroke="none" 
	d="
M406.683960,87.380615 
	C406.688416,99.100288 406.688416,110.353134 406.688416,121.820511 
	C404.388916,121.820511 402.470123,121.820511 400.299744,121.820511 
	C400.299744,109.677063 400.299744,97.625793 400.299744,84.132286 
	C402.740021,85.196228 404.709747,86.055016 406.683960,87.380615 
z"/>
<path fill="#F7F7F7" opacity="1.000000" stroke="none" 
	d="
M429.109619,94.412086 
	C428.732391,91.230049 430.559692,90.560562 432.412231,91.293633 
	C434.153473,91.982658 436.694489,93.542831 436.821228,94.910751 
	C437.325562,100.354965 437.250366,105.886856 436.935852,111.360199 
	C436.746246,114.660324 434.857666,115.412643 429.108795,115.100121 
	C429.108795,108.385025 429.108795,101.626465 429.109619,94.412086 
z"/>
<path fill="#E7E7E7" opacity="1.000000" stroke="none" 
	d="
M272.814514,101.517883 
	C273.289093,105.160149 273.706512,108.396957 274.158081,111.898811 
	C272.387756,111.898811 270.983978,111.898811 269.156189,111.898811 
	C269.882568,107.307266 270.578125,102.910721 271.478882,97.217102 
	C272.173492,99.333435 272.465424,100.222939 272.814514,101.517883 
z"/>
</svg>